<?xml version="1.0" standalone="no"?>
<!DOCTYPE svg PUBLIC "-//W3C//DTD SVG 20010904//EN"
 "http://www.w3.org/TR/2001/REC-SVG-20010904/DTD/svg10.dtd">
<svg version="1.0" xmlns="http://www.w3.org/2000/svg"
 width="600.000000pt" height="600.000000pt" viewBox="0 0 600.000000 600.000000"
 preserveAspectRatio="xMidYMid meet">

<g transform="translate(0.000000,600.000000) scale(0.100000,-0.100000)"
fill="#000000" stroke="none">
<path d="M0 3000 l0 -3000 3000 0 3000 0 0 3000 0 3000 -3000 0 -3000 0 0
-3000z m1086 1307 c15 -15 -6 -18 -102 -15 -87 3 -96 5 -74 15 26 13 163 13
176 0z m4016 -5 c9 -9 -10 -12 -90 -12 -56 0 -102 2 -102 5 0 25 168 31 192 7z
m-3861 -52 c354 -35 619 -153 619 -275 0 -26 -32 -95 -44 -95 -3 0 4 20 15 44
22 51 17 76 -28 118 -80 76 -381 158 -582 158 -54 0 -62 -2 -52 -14 7 -8 11
-30 9 -48 -3 -31 -5 -33 -38 -31 -41 3 -238 3 -295 0 l-40 -2 -3 43 c-3 40 -2
42 25 43 15 1 96 5 178 9 l150 6 -120 2 c-389 6 -735 -66 -853 -176 -86 -80 3
-174 246 -257 115 -40 95 -45 -35 -10 -155 41 -246 98 -273 170 -19 51 -5 89
55 144 89 80 256 136 500 165 144 17 424 20 566 6z m4138 -10 c405 -62 612
-232 453 -371 -48 -42 -116 -72 -232 -104 -130 -34 -145 -30 -30 9 171 58 263
119 276 183 14 71 -106 147 -316 199 -138 34 -239 44 -475 48 l-210 4 168 -7
c92 -4 172 -12 177 -17 5 -5 7 -26 3 -47 l-6 -38 -56 8 c-49 7 -104 7 -266 0
-38 -2 -40 -1 -43 31 -2 18 2 40 9 48 26 32 -212 10 -396 -37 -102 -26 -214
-78 -248 -114 -37 -40 -42 -70 -18 -116 25 -47 18 -52 -9 -6 -84 137 129 271
530 332 112 17 568 14 689 -5z m-3792 -162 c111 -37 180 -104 158 -154 -8 -16
-10 -14 -13 13 -5 52 -92 106 -234 147 -32 9 -58 19 -58 23 0 9 75 -5 147 -29z
m2973 27 c0 -2 -26 -12 -57 -21 -78 -23 -160 -59 -200 -90 -37 -28 -42 -57
-17 -92 8 -12 10 -22 5 -22 -18 0 -42 58 -35 85 12 47 96 101 204 131 46 13
100 18 100 9z m-4075 -15 c-11 -5 -54 -23 -95 -40 -79 -32 -140 -78 -140 -105
0 -26 55 -72 128 -107 37 -17 62 -33 56 -35 -23 -8 -127 40 -165 76 -61 59
-50 106 37 157 49 29 147 63 179 63 l20 0 -20 -9z m5141 -21 c28 -11 70 -33
93 -49 69 -51 66 -105 -10 -160 -39 -28 -137 -65 -146 -56 -3 2 25 18 60 35
72 34 127 80 127 106 0 27 -61 73 -140 105 -41 17 -84 35 -95 41 -35 17 53 -1
111 -22z m-4133 -9 c95 -29 156 -86 142 -130 -8 -25 -25 -26 -18 -2 7 28 -41
78 -95 98 -111 41 -137 53 -116 53 12 1 51 -8 87 -19z m3107 16 c0 -2 -37 -18
-82 -35 -105 -40 -130 -59 -132 -100 -1 -36 -12 -41 -21 -10 -14 42 56 102
155 133 44 14 80 20 80 12z m-4051 -10 c-2 -2 -29 -14 -59 -26 -75 -29 -120
-65 -120 -95 0 -26 37 -59 108 -94 53 -27 54 -34 3 -16 -126 44 -164 99 -112
159 21 25 129 76 160 76 13 0 22 -2 20 -4z m625 -19 c21 -10 58 -34 80 -55 38
-35 83 -52 599 -225 l558 -187 97 24 c228 57 255 60 492 60 237 0 264 -3 493
-60 l98 -25 556 188 c533 179 559 189 605 230 70 62 129 76 287 71 99 -3 136
-9 171 -25 80 -36 83 -44 88 -214 4 -144 4 -151 -18 -174 -57 -61 -219 -96
-347 -75 -43 7 -91 14 -108 14 -21 1 -154 -63 -432 -209 l-403 -209 0 -51 c0
-67 27 -296 39 -327 17 -46 36 -53 94 -35 183 58 576 51 761 -13 144 -49 207
-118 160 -176 -14 -18 -15 -18 -4 5 10 19 9 28 -8 50 -54 73 -322 144 -527
140 -59 -2 -52 -3 44 -10 63 -5 121 -11 128 -13 8 -4 13 -23 13 -53 l0 -48
-157 1 -158 2 -3 40 c-2 28 2 45 15 57 17 18 15 18 -47 12 -93 -10 -211 -37
-204 -48 3 -5 16 -9 30 -9 14 0 22 -4 19 -10 -3 -5 3 -10 14 -10 12 0 20 -6
18 -12 -2 -14 13 -15 53 -4 22 6 22 5 -4 -10 l-29 -16 24 -13 c21 -12 27 -11
48 8 l24 22 -14 -22 c-22 -36 -1 -47 52 -26 31 12 75 17 149 17 88 0 113 -3
156 -22 l51 -23 5 -91 c7 -121 2 -138 -52 -165 -38 -20 -60 -23 -156 -23 -109
0 -114 1 -179 35 -58 31 -218 75 -271 75 -11 0 -14 -23 -14 -110 0 -133 -14
-182 -101 -350 -66 -128 -133 -221 -182 -250 -45 -28 -99 -26 -136 5 -54 46
-79 145 -129 497 -16 109 -31 200 -34 204 -4 3 -27 -4 -53 -15 -35 -16 -49
-29 -61 -58 -23 -55 -43 -73 -79 -73 -27 0 -35 -5 -45 -31 -7 -17 -29 -41 -49
-55 -34 -23 -42 -24 -191 -24 -177 1 -199 7 -239 65 -18 27 -35 41 -54 43 -29
4 -67 44 -67 72 0 22 -26 45 -74 65 -27 11 -41 13 -46 6 -3 -6 -19 -102 -34
-213 -60 -428 -91 -508 -198 -508 -74 0 -151 84 -247 270 -87 168 -101 217
-101 350 0 87 -3 110 -14 110 -53 0 -213 -44 -271 -75 -65 -34 -70 -35 -179
-35 -96 0 -118 3 -156 23 -41 20 -46 27 -54 69 -6 29 -6 74 0 114 7 54 14 71
34 86 56 41 233 48 329 14 53 -19 74 -9 52 27 l-14 22 24 -22 c21 -19 27 -20
49 -8 22 12 23 14 8 20 -10 4 -18 11 -18 16 0 6 9 5 21 -1 16 -9 26 -8 45 5
14 9 22 20 19 25 -4 6 5 10 19 10 44 0 37 18 -12 29 -56 13 -170 31 -196 31
-15 0 -16 -3 -7 -14 7 -8 11 -34 9 -57 l-3 -43 -155 1 -155 0 -3 40 c-2 27 2
44 13 53 8 7 60 16 118 21 l102 8 -115 -4 c-86 -3 -145 -11 -235 -34 -200 -51
-261 -93 -229 -157 l14 -29 -20 24 c-58 68 26 148 215 203 75 22 97 23 340 22
230 -1 269 -3 335 -21 79 -22 101 -19 119 15 11 22 41 265 41 337 l0 50 -53
28 c-28 15 -213 112 -410 214 l-357 185 -43 -10 c-121 -30 -276 -21 -365 21
-75 35 -83 59 -80 226 l3 143 33 28 c59 49 111 60 262 57 99 -3 145 -8 174
-20z m4361 2 c77 -29 115 -63 115 -103 0 -46 -38 -79 -131 -111 -55 -20 -49
-10 14 21 135 68 128 125 -23 184 -30 12 -57 24 -59 26 -11 11 34 2 84 -17z
m-4067 -35 c29 -19 45 -60 32 -82 -8 -14 -9 -12 -10 10 0 21 -10 35 -41 58
-23 16 -50 32 -60 35 -10 4 -19 11 -19 16 0 10 61 -13 98 -37z m-828 24 c-104
-44 -130 -61 -136 -84 -7 -29 13 -56 57 -74 16 -7 29 -16 29 -21 0 -5 -17 -2
-37 6 -42 17 -83 58 -83 82 0 38 106 101 170 102 l25 0 -25 -11z m3950 -14
c-63 -36 -80 -53 -81 -83 l0 -26 -11 23 c-14 29 12 69 63 94 56 29 81 22 29
-8z m827 11 c54 -16 113 -62 113 -88 0 -24 -41 -65 -82 -82 -49 -20 -49 -6 -1
20 20 11 43 30 51 42 13 20 12 24 -13 47 -14 13 -54 36 -88 50 -69 28 -58 34
20 11z m-4745 -51 c-36 -29 -39 -40 -15 -66 19 -21 5 -24 -21 -5 -27 20 -16
58 23 84 45 30 55 19 13 -13z m688 -1 c0 -13 -3 -13 -15 -3 -8 7 -15 19 -15
27 0 13 3 13 15 3 8 -7 15 -19 15 -27z m3296 -1 c-14 -14 -16 -14 -16 -1 0 20
23 44 29 28 2 -6 -4 -18 -13 -27z m677 22 c18 -9 35 -22 39 -28 15 -21 8 -55
-13 -66 -26 -14 -35 -7 -14 10 23 19 18 35 -22 69 -42 34 -38 39 10 15z
m-3845 -1181 c-10 -2 -26 -2 -35 0 -10 3 -2 5 17 5 19 0 27 -2 18 -5z m3060 0
c-10 -2 -26 -2 -35 0 -10 3 -2 5 17 5 19 0 27 -2 18 -5z m-3440 -162 c-31 -15
-65 -34 -75 -41 -14 -11 -14 -9 2 8 23 24 92 61 115 61 8 0 -11 -12 -42 -28z
m3812 -1 c33 -17 60 -35 60 -41 0 -8 -5 -7 -16 2 -8 7 -41 25 -72 40 -31 16
-51 28 -44 29 7 0 39 -14 72 -30z m-3765 -12 c-22 -11 -48 -27 -58 -36 -16
-15 -17 -14 -11 1 7 19 70 56 94 56 8 0 -3 -9 -25 -21z m3675 -19 c19 -34 10
-40 -15 -11 -14 17 -25 32 -25 36 0 11 31 -7 40 -25z m52 9 c13 -13 17 -18 8
-12 -8 6 -24 16 -35 22 -11 6 -15 12 -8 12 7 0 22 -10 35 -22z m-3694 -16
c-13 -16 -25 -25 -27 -20 -4 11 28 48 41 48 5 0 -1 -13 -14 -28z"/>
<path d="M855 4009 c-22 -5 -53 -20 -70 -33 -28 -23 -30 -28 -34 -110 -1 -47
-1 -92 2 -100 4 -10 18 -10 74 5 131 34 326 20 407 -31 41 -24 280 -126 921
-392 l530 -220 105 11 c133 14 286 14 420 0 l105 -11 615 255 c725 301 769
320 835 357 27 15 74 33 103 39 79 16 226 13 305 -8 37 -9 69 -15 72 -13 10
10 5 174 -5 193 -6 10 -30 29 -53 41 -37 20 -57 23 -167 23 -128 0 -186 -12
-212 -42 -11 -14 -9 -14 20 1 l32 17 0 -91 0 -90 -36 -15 c-20 -8 -38 -15 -40
-15 -2 0 -4 24 -4 53 0 37 -3 48 -10 37 -5 -8 -10 -25 -10 -38 0 -13 -4 -20
-10 -17 -5 3 -10 16 -10 29 0 12 -6 30 -13 39 -11 16 -52 4 -497 -146 -610
-206 -602 -203 -614 -244 -11 -42 -21 -42 -32 -1 -9 30 -16 35 -74 51 -92 25
-303 67 -331 66 -13 0 19 -9 71 -19 52 -10 124 -25 160 -35 76 -20 114 -39 60
-31 -208 33 -622 33 -910 1 l-45 -5 32 15 c65 30 285 68 443 75 l155 8 -175
-3 c-177 -4 -295 -22 -480 -72 -58 -16 -65 -21 -74 -51 -12 -42 -20 -41 -32 5
l-9 36 -548 185 c-301 101 -550 182 -553 179 -3 -3 -9 -27 -13 -54 -8 -49 -12
-47 -30 17 -9 34 -9 34 -10 -17 -1 -57 -7 -62 -55 -43 -25 9 -26 12 -26 100
l0 91 33 -16 32 -16 -25 20 c-14 11 -47 25 -73 31 -57 12 -196 12 -252 -1z
m15 -103 l0 -94 -31 -11 c-57 -20 -59 -18 -59 67 0 42 4 82 8 88 7 11 61 43
75 44 4 0 7 -42 7 -94z m4333 56 c25 -26 27 -35 27 -106 0 -58 -3 -77 -12 -73
-7 2 -30 10 -50 18 l-38 13 0 88 c0 85 1 88 23 88 13 0 35 -13 50 -28z m-1234
-536 c-8 -6 -630 -266 -638 -266 -14 0 -23 162 -10 171 7 4 59 20 115 34 97
26 107 27 181 16 74 -12 84 -11 198 18 109 27 165 37 154 27z m-1776 -32 c100
-23 119 -25 173 -15 86 16 106 14 219 -18 l100 -28 3 -54 c3 -64 -11 -109 -34
-109 -33 0 -616 248 -586 249 7 1 64 -11 125 -25z"/>
<path d="M4680 3630 c-66 -22 -1086 -445 -1185 -490 l-70 -32 118 -33 117 -33
28 26 c15 15 42 35 60 44 29 15 32 21 32 64 0 38 5 51 30 74 63 59 146 64 157
10 l6 -30 201 103 c308 159 566 299 566 308 0 11 6 12 -60 -11z"/>
<path d="M1266 3631 c13 -13 228 -127 515 -275 l246 -126 6 30 c8 39 43 48
101 26 57 -22 77 -45 87 -103 6 -33 17 -54 35 -68 14 -11 39 -32 55 -47 l29
-26 117 32 118 33 -50 22 c-180 82 -848 360 -1098 457 -129 51 -184 66 -161
45z"/>
<path d="M2080 3181 c0 -6 -9 -89 -20 -184 -33 -297 -60 -602 -62 -703 -1
-104 4 -117 60 -131 32 -8 35 -1 22 48 -15 54 -10 130 35 527 19 166 35 329
35 361 0 60 2 58 -62 89 -5 2 -8 -2 -8 -7z"/>
<path d="M3868 3166 c-25 -19 -23 -74 13 -376 18 -148 33 -333 36 -442 4 -128
9 -188 17 -188 6 0 26 9 44 20 l33 21 -6 92 c-15 220 -65 743 -82 850 -6 40
-24 47 -55 23z"/>
<path d="M2800 3085 c-120 -17 -312 -58 -408 -87 l-74 -22 5 -63 c2 -35 7 -66
10 -69 2 -3 42 6 88 20 147 42 250 51 584 51 273 -1 324 -3 430 -22 66 -12
146 -31 177 -41 32 -11 60 -17 63 -14 3 3 5 36 5 73 l0 67 -112 31 c-62 17
-134 35 -160 41 -198 43 -455 58 -608 35z m331 -15 c125 -12 231 -33 319 -61
67 -22 106 -45 60 -35 -244 52 -735 52 -1045 1 -20 -4 -26 -2 -19 5 14 14 299
79 392 89 113 12 177 12 293 1z"/>
<path d="M2206 3029 c-8 -42 -8 -89 1 -89 4 0 20 12 35 27 33 31 36 68 9 83
-31 16 -38 12 -45 -21z"/>
<path d="M3742 3048 c-20 -20 -14 -53 14 -82 35 -34 44 -33 43 7 -2 72 -27
105 -57 75z"/>
<path d="M2235 2890 c-12 -4 -26 -15 -33 -23 -13 -15 -40 -202 -31 -211 3 -3
31 4 62 16 37 14 57 26 57 37 0 19 -29 183 -33 187 -1 1 -11 -2 -22 -6z"/>
<path d="M3736 2878 c-11 -57 -26 -157 -26 -171 0 -9 17 -21 43 -30 23 -8 50
-18 60 -22 15 -6 17 -1 17 36 0 93 -18 163 -47 186 -35 29 -42 29 -47 1z"/>
<path d="M2695 2859 c-146 -19 -355 -69 -355 -85 0 -17 48 -94 83 -132 41 -44
179 -142 200 -142 6 0 21 10 33 21 13 12 37 24 55 28 24 5 38 17 53 44 25 43
49 62 94 72 l34 7 -31 32 c-37 38 -39 65 -8 94 33 31 71 42 147 42 76 0 114
-11 148 -42 30 -29 28 -56 -9 -94 l-32 -33 29 -7 c44 -11 85 -43 100 -80 12
-30 19 -34 50 -34 24 0 42 -7 58 -25 l23 -25 58 31 c75 41 174 135 208 198
l28 50 -68 21 c-149 46 -292 62 -568 66 -143 1 -291 -2 -330 -7z"/>
<path d="M2937 2781 c-21 -4 -43 -14 -50 -21 -10 -10 -8 -12 7 -6 39 13 132
18 176 7 50 -11 62 -8 30 9 -28 15 -115 21 -163 11z"/>
<path d="M2936 2724 c-9 -8 -16 -24 -16 -35 0 -17 8 -19 78 -19 l78 0 -4 35
-4 35 -58 0 c-40 0 -64 -5 -74 -16z"/>
<path d="M1854 2636 c-171 -114 -201 -130 -211 -112 -18 33 -66 46 -168 46
-135 0 -149 -8 -153 -83 -3 -58 -3 -58 20 -45 16 9 67 13 158 14 l135 1 139
51 c181 67 183 68 191 137 4 31 6 58 3 60 -2 2 -53 -28 -114 -69z"/>
<path d="M4035 2654 c4 -33 12 -64 17 -71 11 -13 122 -58 257 -103 78 -26 95
-28 181 -24 70 4 108 2 145 -10 27 -8 50 -14 50 -13 1 1 -1 27 -4 57 -8 71
-24 80 -153 80 -104 0 -144 -10 -165 -40 -13 -19 -16 -19 -46 -3 -18 9 -84 51
-147 93 -63 42 -121 80 -128 84 -11 7 -12 -3 -7 -50z"/>
<path d="M2203 2604 c-18 -7 -37 -22 -43 -33 -14 -28 -12 -61 4 -61 21 0 180
31 185 36 3 2 -11 20 -29 39 -37 38 -64 43 -117 19z"/>
<path d="M3679 2583 l-32 -37 84 -18 c111 -23 119 -22 119 3 0 34 -18 56 -60
73 -59 23 -74 20 -111 -21z"/>
<path d="M2821 2564 l-31 -26 0 -148 0 -148 33 -21 c18 -11 53 -23 77 -27 l45
-7 -47 42 c-56 50 -72 95 -66 188 3 53 9 68 33 94 41 43 76 59 127 59 109 0
184 -82 175 -191 -6 -68 -39 -135 -78 -157 -41 -24 -36 -35 14 -27 91 15 107
48 107 219 l0 108 -34 34 -34 34 -145 0 c-142 0 -146 -1 -176 -26z"/>
<path d="M2983 2523 c9 -2 23 -2 30 0 6 3 -1 5 -18 5 -16 0 -22 -2 -12 -5z"/>
<path d="M1837 2473 c-54 -20 -96 -37 -95 -39 4 -4 185 33 198 41 12 7 14 35
3 34 -5 0 -52 -16 -106 -36z"/>
<path d="M4050 2497 c0 -8 6 -19 13 -24 14 -11 165 -38 172 -31 3 2 -32 17
-78 33 -45 16 -88 30 -94 33 -7 2 -13 -3 -13 -11z"/>
<path d="M2690 2475 c-22 -59 -3 -169 29 -163 13 3 16 18 16 93 0 77 -2 90
-17 93 -12 2 -21 -6 -28 -23z"/>
<path d="M3252 2410 c5 -98 13 -118 43 -96 13 10 20 29 23 72 5 77 -9 114 -44
114 l-26 0 4 -90z"/>
<path d="M2290 2479 c-25 -5 -68 -13 -96 -19 l-51 -11 -6 -82 c-4 -45 -3 -108
2 -139 16 -96 127 -328 150 -314 15 10 45 198 61 390 10 121 7 187 -8 185 -4
-1 -27 -5 -52 -10z"/>
<path d="M2933 2470 c-113 -68 -78 -230 53 -246 73 -9 144 55 144 131 0 69
-66 135 -135 135 -16 0 -44 -9 -62 -20z m77 -59 c0 -35 19 -52 48 -44 16 4 22
1 22 -10 0 -47 -43 -87 -91 -87 -28 0 -79 53 -79 82 0 42 43 85 88 87 7 1 12
-11 12 -28z"/>
<path d="M3645 2469 c-14 -42 39 -515 62 -552 10 -17 38 21 84 118 63 132 83
215 75 324 -3 46 -7 85 -9 87 -2 2 -41 11 -88 19 -46 9 -92 18 -101 21 -11 3
-19 -3 -23 -17z"/>
<path d="M3556 2442 c-15 -18 -15 -31 13 -221 41 -276 60 -376 77 -398 13 -17
13 -17 14 4 0 12 -7 54 -15 94 -23 109 -42 247 -55 399 -7 74 -13 136 -14 138
-2 1 -10 -6 -20 -16z"/>
<path d="M2415 2358 c-10 -135 -33 -308 -57 -426 -18 -92 -19 -126 -2 -110 13
14 35 126 63 323 39 271 40 305 17 305 -10 0 -16 -23 -21 -92z"/>
</g>
</svg>
